<?xml version="1.0" encoding="UTF-8"?>
<!-- Generator: Adobe Illustrator 24.0.1, SVG Export Plug-In . SVG Version: 6.00 Build 0)  -->
<svg xmlns="http://www.w3.org/2000/svg" xmlns:xlink="http://www.w3.org/1999/xlink" version="1.1" id="Layer_1" x="0px" y="0px" viewBox="0 0 841.9 136.7" style="enable-background:new 0 0 841.9 136.7;" xml:space="preserve">
<style type="text/css">
	.st0{fill:#B9A057;}
</style>
<path d="M190.8,53.2l-11.4,20.3L168,53.2h-4.9v31h5.3V63.4l9.2,16.1h3.5l9.2-16.2v20.9h5.3v-31H190.8z M210.3,72.5l5.8-13.3h0.1  l5.8,13.3H210.3z M213.8,53.2l-14.6,31h5.9l3.2-7.2h15.8l3.2,7.2h5.9l-14.6-31C218.6,53.2,213.8,53.2,213.8,53.2z M254.5,71.3  c2.3-0.5,4.1-1.6,5.4-3.1s1.9-3.4,1.9-5.8c0-2.9-1-5.2-2.9-6.9c-1.9-1.6-4.7-2.4-8.2-2.4h-14v31h5.9v-7.3l0,0v-14l0,0v-5.2h7.1  c4.3,0,6.4,1.7,6.4,5s-2.2,5-6.4,5h-3v4.2h0.2c1.1,0,2.1,0.2,2.9,0.5c0.7,0.3,1.4,1,1.9,2l5.6,9.9h6.5l-5.4-9.6  C257.4,72.9,256.1,71.7,254.5,71.3 M268.1,84.2h21.5v-4.5h-15.8v-9h14.8v-4.5h-14.8v-8.5h15.8v-4.5h-21.5V84.2z M311.9,73.5  l-11.5-20.3h-4.9v31h5.4V63.4l9.2,16.1h3.4l9.3-16.2v20.9h5.3v-31h-4.8L311.9,73.5z M335.2,53.2h5.9v31h-5.9V53.2z M363.2,57.8  c1.6,0,3.2,0.2,4.6,0.7s2.8,1.3,4.2,2.4l1.9-4.5c-1.3-1.2-2.9-2.1-4.8-2.8c-1.9-0.6-4-1-6.2-1c-3.4,0-6.2,0.6-8.6,2  s-4.3,3.2-5.5,5.5c-1.3,2.4-1.9,5.2-1.9,8.5s0.7,6.1,1.9,8.5c1.3,2.4,3.1,4.3,5.5,5.5c2.4,1.3,5.3,2,8.6,2c2.2,0,4.2-0.3,6.2-1  c1.9-0.6,3.5-1.6,4.8-2.8l-1.9-4.5c-1.4,1.1-2.8,1.9-4.2,2.4c-1.4,0.5-3,0.7-4.6,0.7c-3.2,0-5.8-1-7.4-2.9c-1.7-1.9-2.6-4.6-2.6-8.1  s0.8-6.2,2.6-8.1C357.5,58.7,360,57.8,363.2,57.8 M399.4,76.9c-1.7,2-4,2.9-6.9,2.9s-5.3-1-6.9-2.9c-1.6-2-2.5-4.7-2.5-8.2  s0.8-6.2,2.5-8.2c1.6-2,4-2.9,6.9-2.9c3,0,5.3,1,6.9,2.9c1.6,2,2.5,4.7,2.5,8.2C401.9,72.2,401.1,74.9,399.4,76.9 M406.2,60.2  c-1.3-2.4-3.1-4.2-5.4-5.5s-5-2-8.2-2c-3.1,0-5.9,0.6-8.2,2c-2.3,1.3-4.1,3.2-5.4,5.5c-1.3,2.4-1.9,5.2-1.9,8.5  c0,3.2,0.7,6.1,1.9,8.4c1.3,2.4,3.1,4.3,5.5,5.6c2.3,1.3,5,2,8.1,2s5.9-0.6,8.2-2c2.3-1.3,4.1-3.2,5.4-5.6s1.9-5.2,1.9-8.5  C408.1,65.4,407.4,62.6,406.2,60.2 M753,55.5h9.1c5.5,0,8.1,2.1,8.1,6.5s-2.7,6.6-8.1,6.6H753V55.5z M753,84.4V70.8h6.6  c1.7,0,3,0.3,3.9,0.8s1.9,1.4,2.7,2.9l5.6,9.9h3.1l-6-10.4c-0.9-1.8-2.2-3-3.4-3.5c2.3-0.5,4.2-1.4,5.6-2.9c1.3-1.5,2-3.3,2-5.7  c0-2.9-0.9-5-2.8-6.6c-1.9-1.5-4.5-2.3-8-2.3h-12.2v31.2h2.8v0.2C752.9,84.4,753,84.4,753,84.4z M742.3,84.4V82h-17.2V69.6h16.3  v-2.4h-16.3V55.5h17.2V53h-20v31.2h20V84.4z M704.5,84.4V55.5h12V53h-27v2.4h12v28.8h3V84.4z M661,84.4V57.7l20.5,26.6h2.2V53.2H681  v26.6l-20.5-26.6h-2.2v31.2C658.3,84.4,661,84.4,661,84.4z M650.6,84.4V82h-17.2V69.6h16.3v-2.4h-16.3V55.5h17.2V53h-20v31.2h20  V84.4z M618,83.6c1.9-0.8,3.4-1.7,4.8-3l-1.3-2.3c-1.4,1.4-3,2.4-4.5,2.9c-1.6,0.6-3.3,0.9-5.2,0.9c-3.8,0-6.7-1.2-8.8-3.5  c-2-2.4-3.1-5.7-3.1-9.9c0-4.2,1.1-7.5,3.1-9.9s5-3.5,8.8-3.5c1.9,0,3.6,0.3,5.2,0.9c1.6,0.6,3,1.5,4.5,2.9l1.3-2.3  c-1.3-1.4-3-2.4-4.8-3c-1.9-0.8-3.9-1.1-6.3-1.1c-3.1,0-5.8,0.6-8,2s-3.9,3.2-5.2,5.6s-1.7,5.3-1.7,8.4c0,3.3,0.6,6.2,1.7,8.6  c1.3,2.4,2.8,4.2,5.2,5.6c2.2,1.4,4.8,2,8,2C614.1,84.7,616.2,84.4,618,83.6 M579.3,53h-2.8v31.2h2.8V53z M543.9,84.4V57.7  l20.5,26.6h2.2V53.2h-2.7v26.6l-20.5-26.6h-2.2v31.2C541.2,84.4,543.9,84.4,543.9,84.4z M535,84.4V82h-16.9V53.2h-2.8v31.2H535z   M493.1,56.5l7.7,17.2h-15.3L493.1,56.5L493.1,56.5z M480.8,84.4l3.8-8.3H502l3.8,8.3h3l-14.1-31.2H492l-14.1,31.2H480.8z   M456.7,55.5h9.2c5.3,0,8,2.3,8,6.9c0,4.5-2.7,6.8-8,6.8h-9.2V55.5z M456.7,84.4V71.6h9.4c3.4,0,6.1-0.8,8-2.4  c1.9-1.7,2.8-3.9,2.8-6.8c0-3-0.9-5.3-2.8-6.8s-4.5-2.4-8-2.4h-12.2v31.2C453.9,84.4,456.7,84.4,456.7,84.4z M440.9,83.6  c1.7-0.8,3.1-1.7,4.1-3c0.9-1.4,1.4-2.7,1.4-4.5c0-2.1-0.8-3.8-2.2-5c-1.6-1.2-3.8-2.1-6.9-2.7l-4.7-0.9c-2.2-0.5-3.8-1.1-4.7-2  c-0.9-0.9-1.4-2.1-1.4-3.8c0-2,0.8-3.6,2.3-4.7c1.6-1.2,3.6-1.8,6.3-1.8c1.9,0,3.6,0.3,5.2,0.9c1.6,0.6,3,1.5,4.4,2.7l1.1-2.3  c-2.7-2.6-6.3-3.9-10.8-3.9c-2.2,0-4.2,0.5-5.9,1.1c-1.7,0.8-3.1,1.8-4.1,3.2c-0.9,1.4-1.4,3-1.4,4.7c0,2.3,0.8,3.9,2.2,5.3  c1.4,1.4,3.6,2.3,6.4,2.9l4.7,0.9c2.3,0.5,4.2,1.1,5.2,2c1.1,0.8,1.6,2,1.6,3.5c0,1.8-0.8,3.2-2.2,4.4c-1.4,1.1-3.6,1.7-6.6,1.7  c-2.3,0-4.4-0.3-5.9-0.9c-1.7-0.6-3.3-1.5-4.8-2.7l-1.1,2.3c1.4,1.2,3.3,2.1,5.2,2.9c2,0.6,4.2,0.9,6.7,0.9  C437.1,84.7,439.2,84.2,440.9,83.6"></path>
<path class="st0" d="M123,44.2c1,0.3,2.1,0.7,3.1,1.3s2,1.3,3,2.2c0.9,0.9,1.6,1.9,2.2,2.9c0.6,1,1.1,2,1.4,3.1  c0.8,2.5,0.8,4.9,0.2,7.4c-0.7,2.5-1.9,4.6-3.8,6.4c-1.9,1.8-4.1,3.1-6.6,3.7c-0.3,0.1-0.7,0.2-1,0.2l3.1,3c2-0.6,4-1.6,5.6-2.9  c0.4,0.5,0.8,1,1.1,1.6c0.6,1,1.1,2,1.4,3.1c0.8,2.5,0.8,4.9,0.2,7.4c-0.7,2.5-1.9,4.6-3.8,6.4c-1.9,1.8-4.1,3.1-6.6,3.7  c-2.6,0.6-5.2,0.6-7.7-0.1c-1-0.3-2.1-0.7-3.1-1.3c-0.5-0.3-1.1-0.7-1.7-1.2c1.2-1.4,2.2-3.1,2.9-4.8l-3.1-2.9c0,0.1,0,0.1-0.1,0.2  c-0.7,2.5-1.9,4.6-3.8,6.4s-4.1,3.1-6.6,3.7c-2.6,0.6-5.2,0.6-7.7-0.1c-1-0.3-2.1-0.7-3.1-1.3c-1-0.6-2-1.3-3-2.2  c-0.9-0.9-1.6-1.9-2.2-2.9s-1.1-2-1.4-3.1c-0.8-2.5-0.8-4.9-0.2-7.4c0.7-2.4,1.9-4.6,3.8-6.4s4.1-3.1,6.6-3.7c0.1,0,0.1,0,0.2-0.1  l-3.1-2.9c-1.8,0.6-3.4,1.6-4.9,2.7c-0.4-0.5-0.8-1-1.1-1.6c-0.6-1-1.1-2-1.4-3.1c-0.8-2.5-0.8-5-0.2-7.4c0.7-2.5,1.9-4.6,3.8-6.4  c1.9-1.8,4.1-3.1,6.6-3.7c2.6-0.6,5.2-0.6,7.7,0.1c1,0.3,2.1,0.7,3.1,1.3c0.5,0.3,1.1,0.7,1.7,1.2c-1.4,1.7-2.4,3.5-3.1,5.5l3.1,3  c0.1-0.3,0.1-0.6,0.2-0.9c0.7-2.5,1.9-4.6,3.8-6.4c1.9-1.8,4.1-3.1,6.6-3.7C117.8,43.5,120.4,43.5,123,44.2 M131.8,45.2  c-1.2-1.1-2.5-2.1-3.7-2.8c-1.3-0.7-2.6-1.3-4.1-1.7c-3.2-0.9-6.5-0.9-9.8-0.1c-2.6,0.6-5,1.8-7.1,3.5c-0.8-0.6-1.6-1.2-2.4-1.7  c-1.3-0.7-2.6-1.3-4.1-1.7c-3.2-0.9-6.5-0.9-9.8-0.1c-3.2,0.8-6.1,2.4-8.4,4.6c-2.4,2.3-4,5-4.8,8.1c-0.8,3.1-0.7,6.2,0.2,9.3  c0.4,1.4,1,2.7,1.8,3.9c0.5,0.7,1,1.5,1.6,2.2c-1.7,2-2.9,4.3-3.7,6.8c-0.8,3.1-0.7,6.2,0.2,9.3c0.4,1.4,1,2.7,1.8,3.9  c0.8,1.2,1.7,2.4,2.8,3.5l0.1,0.1l-0.1-0.1c1.2,1.1,2.5,2.1,3.7,2.8c1.3,0.7,2.6,1.3,4.1,1.7c3.2,0.9,6.5,0.9,9.8,0.1  c2.6-0.6,5-1.8,7.1-3.5c0.8,0.6,1.6,1.2,2.4,1.7c1.3,0.7,2.6,1.3,4.1,1.7c3.3,0.9,6.5,0.9,9.8,0.1c3.2-0.8,6.1-2.4,8.4-4.6  c2.4-2.3,4-5,4.8-8.1c0.4-1.4,0.5-2.8,0.5-4.3c0-1.7-0.2-3.4-0.8-5.1c-0.4-1.4-1-2.7-1.8-3.9c-0.5-0.7-1-1.5-1.6-2.2  c1.7-2,2.9-4.3,3.7-6.8c0.4-1.4,0.5-2.8,0.5-4.3c0-1.7-0.2-3.4-0.8-5.1c-0.4-1.4-1-2.7-1.8-3.9C133.9,47.6,132.9,46.3,131.8,45.2   M107.3,71.7l-8.1-13h-3.4v19.8h3.7V65.2l6.5,10.3h2.4l6.5-10.4v13.4h3.7V58.7h-3.4L107.3,71.7z"></path>
</svg>
