<?xml version="1.0" encoding="utf-8"?>
<!-- Generator: Adobe Illustrator 25.2.0, SVG Export Plug-In . SVG Version: 6.00 Build 0)  -->
<svg version="1.0" id="Layer_1" xmlns="http://www.w3.org/2000/svg" xmlns:xlink="http://www.w3.org/1999/xlink" x="0px" y="0px"
	 viewBox="0 0 502.6 122" style="enable-background:new 0 0 502.6 122;" xml:space="preserve">
<style type="text/css">
	.st0{fill:#B9A057;}
</style>
<path class="st0" d="M114.4,21.6c1.7,0.5,3.5,1.2,5.2,2.2s3.3,2.2,5,3.7c1.5,1.5,2.7,3.2,3.7,4.8c1,1.7,1.8,3.3,2.3,5.2
	c1.3,4.2,1.3,8.1,0.3,12.3c-1.2,4.2-3.2,7.7-6.3,10.6c-3.2,3-6.8,5.2-11,6.2c-0.5,0.2-1.2,0.3-1.7,0.3l5.2,5c3.3-1,6.7-2.7,9.3-4.8
	c0.7,0.8,1.3,1.7,1.8,2.7c1,1.7,1.8,3.3,2.3,5.2c1.3,4.2,1.3,8.1,0.3,12.3c-1.2,4.2-3.2,7.7-6.3,10.6c-3.2,3-6.8,5.2-11,6.2
	c-4.3,1-8.6,1-12.8-0.2c-1.7-0.5-3.5-1.2-5.2-2.2c-0.8-0.5-1.8-1.2-2.8-2c2-2.3,3.7-5.2,4.8-8l-5.2-4.8c0,0.2,0,0.2-0.2,0.3
	c-1.2,4.2-3.2,7.7-6.3,10.6c-3.2,3-6.8,5.2-11,6.2c-4.3,1-8.6,1-12.8-0.2c-1.7-0.5-3.5-1.2-5.2-2.2c-1.7-1-3.3-2.2-5-3.7
	c-1.5-1.5-2.7-3.2-3.7-4.8c-1-1.7-1.8-3.3-2.3-5.2c-1.3-4.2-1.3-8.1-0.3-12.3c1.2-4,3.2-7.7,6.3-10.6c3.2-3,6.8-5.2,11-6.2
	c0.2,0,0.2,0,0.3-0.2l-5.2-4.8c-3,1-5.7,2.7-8.1,4.5c-0.7-0.8-1.3-1.7-1.8-2.7c-1-1.7-1.8-3.3-2.3-5.2c-1.3-4.2-1.3-8.3-0.3-12.3
	c1.2-4.2,3.2-7.7,6.3-10.6c3.2-3,6.8-5.2,11-6.2c4.3-1,8.6-1,12.8,0.2c1.7,0.5,3.5,1.2,5.2,2.2c0.8,0.5,1.8,1.2,2.8,2
	c-2.3,2.8-4,5.8-5.2,9.1l5.2,5c0.2-0.5,0.2-1,0.3-1.5c1.2-4.2,3.2-7.7,6.3-10.6c3.2-3,6.8-5.2,11-6.2
	C105.8,20.5,110.1,20.5,114.4,21.6 M129.1,23.3c-2-1.8-4.2-3.5-6.2-4.7c-2.2-1.2-4.3-2.2-6.8-2.8c-5.3-1.5-10.8-1.5-16.3-0.2
	c-4.3,1-8.3,3-11.8,5.8c-1.3-1-2.7-2-4-2.8c-2.2-1.2-4.3-2.2-6.8-2.8c-5.3-1.5-10.8-1.5-16.3-0.2c-5.3,1.3-10.1,4-14,7.7
	c-4,3.8-6.7,8.3-8,13.5c-1.3,5.2-1.2,10.3,0.3,15.5c0.7,2.3,1.7,4.5,3,6.5c0.8,1.2,1.7,2.5,2.7,3.7c-2.8,3.3-4.8,7.2-6.2,11.3
	c-1.3,5.2-1.2,10.3,0.3,15.5c0.7,2.3,1.7,4.5,3,6.5c1.3,2,2.8,4,4.7,5.8l0.2,0.2l-0.2-0.2c2,1.8,4.2,3.5,6.2,4.7
	c2.2,1.2,4.3,2.2,6.8,2.8c5.3,1.5,10.8,1.5,16.3,0.2c4.3-1,8.3-3,11.8-5.8c1.3,1,2.7,2,4,2.8c2.2,1.2,4.3,2.2,6.8,2.8
	c5.5,1.5,10.8,1.5,16.3,0.2c5.3-1.3,10.1-4,14-7.7c4-3.8,6.7-8.3,8-13.5c0.7-2.3,0.8-4.7,0.8-7.2c0-2.8-0.3-5.7-1.3-8.5
	c-0.7-2.3-1.7-4.5-3-6.5c-0.8-1.2-1.7-2.5-2.7-3.7c2.8-3.3,4.8-7.2,6.2-11.3c0.7-2.3,0.8-4.7,0.8-7.2c0-2.8-0.3-5.7-1.3-8.5
	c-0.7-2.3-1.7-4.5-3-6.5C132.6,27.3,130.9,25.1,129.1,23.3 M88.3,67.4L74.8,45.8h-5.7v32.9h6.2V56.6l10.8,17.1h4L101,56.4v22.3h6.2
	V45.8h-5.7L88.3,67.4z"/>
<g>
	<path d="M196.6,96.8v-62h-25v-6.9h58.2v6.9h-25v62H196.6z"/>
	<path d="M224.5,96.8l30.4-68.9h6.8l30.4,68.9h-8.3l-7.6-17.6h-35.9l-7.5,17.6H224.5z M258.2,37.3l-15,35.2h30.1l-15-35.2H258.2z"/>
	<path d="M324.1,97.7c-5.4,0-10.3-0.7-14.7-2.1c-4.4-1.4-8.1-3.4-11.3-6.1l2.8-6.5c3.3,2.5,6.8,4.4,10.5,5.7
		c3.6,1.2,7.9,1.9,12.7,1.9c5.9,0,10.2-1.1,13.1-3.3c2.8-2.2,4.3-5.1,4.3-8.7c0-2.9-1-5.1-3.1-6.8c-2.1-1.7-5.5-3-10.3-4l-10.2-2.1
		c-6.1-1.3-10.7-3.4-13.7-6.4c-3-3-4.5-6.9-4.5-11.9c0-4.1,1.1-7.7,3.2-10.8c2.1-3.1,5.1-5.4,8.8-7.1c3.8-1.7,8.1-2.5,13.1-2.5
		c4.6,0,8.9,0.7,12.9,2.2c4,1.5,7.3,3.6,10.1,6.3l-2.8,6.3c-2.9-2.7-6-4.6-9.3-5.8c-3.3-1.2-6.9-1.8-11-1.8c-5.2,0-9.3,1.2-12.3,3.6
		c-3.1,2.4-4.6,5.5-4.6,9.4c0,3.1,1,5.6,2.9,7.4c1.9,1.8,5.1,3.2,9.4,4l10.2,2.2c6.6,1.4,11.5,3.4,14.6,6.2
		c3.2,2.8,4.7,6.5,4.7,11.3c0,3.8-1,7.2-3.1,10.2c-2.1,2.9-5,5.2-8.8,6.8C333.8,96.9,329.3,97.7,324.1,97.7z"/>
	<path d="M361.9,96.8V27.9h8v31.3h0.2l33.4-31.3h10.3l-36,33.5L416,96.8h-10.6l-35.3-32.5H370v32.5H361.9z"/>
	<path d="M442.7,97.7c-5.4,0-10.3-0.7-14.7-2.1c-4.4-1.4-8.1-3.4-11.3-6.1l2.8-6.5c3.3,2.5,6.8,4.4,10.5,5.7
		c3.6,1.2,7.9,1.9,12.7,1.9c5.9,0,10.2-1.1,13.1-3.3c2.8-2.2,4.3-5.1,4.3-8.7c0-2.9-1-5.1-3.1-6.8c-2.1-1.7-5.5-3-10.3-4l-10.2-2.1
		c-6.1-1.3-10.7-3.4-13.7-6.4c-3-3-4.5-6.9-4.5-11.9c0-4.1,1.1-7.7,3.2-10.8c2.1-3.1,5.1-5.4,8.8-7.1c3.8-1.7,8.1-2.5,13.1-2.5
		c4.6,0,8.9,0.7,12.9,2.2c4,1.5,7.3,3.6,10.1,6.3l-2.8,6.3c-2.9-2.7-6-4.6-9.3-5.8c-3.3-1.2-6.9-1.8-11-1.8c-5.2,0-9.3,1.2-12.3,3.6
		c-3.1,2.4-4.6,5.5-4.6,9.4c0,3.1,1,5.6,2.9,7.4c1.9,1.8,5.1,3.2,9.4,4l10.2,2.2c6.6,1.4,11.5,3.4,14.6,6.2
		c3.2,2.8,4.7,6.5,4.7,11.3c0,3.8-1,7.2-3.1,10.2c-2.1,2.9-5,5.2-8.8,6.8C452.4,96.9,447.9,97.7,442.7,97.7z"/>
</g>
</svg>
